<?xml version="1.0" encoding="UTF-8"?>
<svg xmlns="http://www.w3.org/2000/svg" viewBox="0 0 280 64" width="280" height="64">
  <defs>
    <linearGradient id="brandGrad" x1="0%" y1="0%" x2="100%" y2="100%">
      <stop offset="0%" stop-color="#22D3EE"/>
      <stop offset="50%" stop-color="#A78BFA"/>
      <stop offset="100%" stop-color="#F472B6"/>
    </linearGradient>
  </defs>
  <g transform="translate(0,2)">
    <path d="M32 4 C 28 12, 26 18, 28 24 C 26 22, 22 22, 22 26 C 22 30, 28 30, 32 30 C 36 30, 42 30, 42 26 C 42 22, 38 22, 36 24 C 38 18, 36 12, 32 4 Z" fill="url(#brandGrad)"/>
    <path d="M22 26 C 14 28, 8 36, 10 44 C 12 38, 18 34, 24 34 C 22 32, 22 28, 22 26 Z" fill="url(#brandGrad)" opacity="0.9"/>
    <path d="M42 26 C 50 28, 56 36, 54 44 C 52 38, 46 34, 40 34 C 42 32, 42 28, 42 26 Z" fill="url(#brandGrad)" opacity="0.9"/>
    <rect x="14" y="34" width="36" height="4" rx="2" fill="url(#brandGrad)" opacity="0.85"/>
    <path d="M28 38 L 28 50 C 28 55, 30 58, 32 60 C 34 58, 36 55, 36 50 L 36 38 Z" fill="url(#brandGrad)"/>
    <path d="M24 42 C 20 46, 18 52, 22 56 C 22 52, 24 48, 28 46 Z" fill="url(#brandGrad)" opacity="0.8"/>
    <path d="M40 42 C 44 46, 46 52, 42 56 C 42 52, 40 48, 36 46 Z" fill="url(#brandGrad)" opacity="0.8"/>
  </g>
  <text x="76" y="44" font-family="Inter, system-ui, sans-serif" font-size="36" font-weight="700" letter-spacing="-0.5">
    <tspan fill="url(#brandGrad)">Ai</tspan><tspan fill="#F4F6FF">Lys</tspan>
  </text>
  <text x="200" y="44" font-family="ui-monospace, SFMono-Regular, monospace" font-size="11" font-weight="500" letter-spacing="3" fill="#9AA3C7">
    AGENCY
  </text>
</svg>
